PathFileType	4	(X/Y/Z)	C:/Users/beibeiliu/ov580/test_trc\sequence.25_training_dense_left.trc
DataRate	CameraRate	NumFrames	NumMarkers	Units	OrigDataRate	OrigDataStartFrame	OrigNumFrames
120	120	12	19	mm	120	151	300
Frame#	Time	ThumbCMC			ThumbMCP			ThumbIP			ThumbTip			IndexMCP			IndexPIP			IndexTip			MiddleMCP			MiddlePIP			MiddleTip			RingMCP			RingPIP			RingTip			PinkyMCP			PinkyPIP			PinkyTip			BackHand1			BackHand2			BackHand3	
		X0	Y0	Z0	X1	Y1	Z1	X2	Y2	Z2	X3	Y3	Z3	X4	Y4	Z4	X5	Y5	Z5	X6	Y6	Z6	X7	Y7	Z7	X8	Y8	Z8	X9	Y9	Z9	X10	Y10	Z10	X11	Y11	Z11	X12	Y12	Z12	X13	Y13	Z13	X14	Y14	Z14	X15	Y15	Z15	X16	Y16	Z16	X17	Y17	Z17	X18	Y18	Z18	
150	1.25	-205.073	7.43821	16.3756	-195.551	9.88652	-15.4503	-195.566	22.4054	-33.5814	-206.543	42.1623	-48.3642	-178.439	53.643	-17.6766	-168.748	63.3031	-38.6323	-167.442	74.3334	-58.2287	-190.868	68.5577	-24.2441	-184.693	77.0511	-48.7019	-179.628	80.897	-70.1464	-213.207	58.2707	-33.6418	-225.762	36.8508	-44.336	-231.21	21.3401	-23.1708	-235.998	61.1352	-27.126	-238.798	36.009	-31.1714	-236.962	25.9869	-5.37481	-222.692	54.8867	20.5456	-233.489	40.9872	39.0974	-204.299	33.4681	32.4336	
151	1.25833	-199.621	4.79514	14.7599	-195.337	9.21271	-13.6819	-194.334	23.6743	-37.1499	-208.362	41.0896	-45.4744	-175.16	49.4408	-22.5852	-168.614	57.0209	-44.0584	-164.808	65.5986	-67.0374	-188.739	64.493	-27.3919	-180.106	72.9316	-49.9633	-172.215	80.2615	-73.796	-214.176	57.1239	-38.3013	-225.405	34.0359	-45.4887	-231.568	20.0595	-25.7133	-230.893	57.3512	-30.1545	-239.134	34.9244	-31.938	-236.344	26.4937	-8.76857	-217.309	61.2445	15.1862	-228.813	46.7016	37.3274	-201.531	38.6961	25.7564	
152	1.26667	-198.386	6.35959	15.0238	-194.296	3.05033	-13.4179	-194.177	16.9692	-36.2588	-205.968	35.4623	-48.8503	-171	44.6785	-30.5333	-165.028	49.1775	-51.9986	-162.884	55.8574	-71.5705	-184.162	61.6469	-34.1521	-175.906	65.404	-54.7218	-170.612	74.0087	-76.5656	-210.952	54.7575	-38.112	-225.246	33.8006	-47.4853	-231.334	20.1893	-20.7049	-232.181	58.4211	-32.0426	-235.153	33.4383	-31.6551	-231.527	28.6475	-7.61515	-213.255	59.4781	13.3895	-219.438	48.0741	36.9582	-197.582	38.1848	25.4882	
153	1.275	-196.587	9.4654	16.4416	-190.28	2.35677	-14.6953	-194.626	18.011	-34.2606	-205.73	31.2617	-48.4802	-172.814	44.2019	-31.3002	-163.741	46.6001	-57.7636	-163.943	51.3962	-79.8401	-178.969	57.8965	-40.4395	-176.319	62.3302	-59.8725	-168.107	65.0704	-82.9644	-212.599	55.5647	-39.4637	-226.437	29.1798	-46.7278	-228.463	18.4444	-23.6491	-226.88	55.2905	-32.0832	-236.841	32.2486	-29.4434	-231.054	28.4024	-7.02189	-208.974	63.427	7.24017	-217.053	52.8195	36.5116	-192.984	40.631	25.1394	
154	1.28333	-192.323	11.5653	17.1507	-187.913	2.27742	-15.7102	-193.344	15.8915	-39.3478	-207.167	31.6941	-46.3367	-166.343	40.8325	-38.3202	-165.962	43.765	-59.8155	-164.199	43.5591	-80.7427	-181.284	57.0635	-42.2993	-174.782	56.0668	-63.6989	-169.367	58.8139	-89.8371	-207.3	50.4342	-39.7274	-226.881	27.3323	-43.8623	-228.133	18.8284	-19.1085	-227.039	56.5345	-32.1025	-232.085	30.4351	-30.2369	-229.584	28.2092	-7.77461	-203.239	62.1504	7.70501	-212.197	55.2033	35.529	-186.778	41.1921	20.0548	
155	1.29167	-188.856	11.7602	20.5424	-189.06	6.08572	-12.4387	-194.362	12.4152	-35.9526	-208.455	29.7504	-51.0034	-165.511	35.356	-37.2868	-162.556	34.9503	-62.8542	-164.087	33.7336	-85.6261	-179.1	52.9713	-44.4157	-175.747	49.5871	-70.5733	-174.887	52.0654	-91.8674	-206.774	47.5347	-41.5427	-225.918	26.9772	-43.9476	-225.557	17.7229	-16.1034	-224.442	51.6299	-33.7344	-233.745	31.4397	-27.1685	-227.011	26.7763	-3.94667	-197.51	63.5761	6.05344	-203.078	58.6343	35.7221	-183.505	46.0907	22.1265	
156	1.3	-184.287	13.2596	18.2075	-187.635	4.52221	-10.0563	-194.251	9.98599	-36.2527	-209.041	21.9973	-51.3247	-168.385	35.1215	-43.1817	-167.359	31.227	-64.2093	-169.025	25.4667	-86.3163	-180.662	50.5255	-50.1425	-179.948	46.017	-70.5672	-180.535	44.8784	-96.312	-211.561	46.5165	-43.9177	-223.414	21.3953	-39.0294	-224.36	17.949	-11.1877	-220.825	52.7924	-30.2025	-230.82	30.9918	-26.3312	-226.641	27.3125	0.218841	-195.364	64.372	2.12854	-197.225	60.2812	30.828	-179.069	47.2533	15.5939	
157	1.30833	-181.465	11.6289	21.5832	-188.331	0.911798	-7.0806	-195.381	7.48465	-34.6091	-209.241	23.2232	-46.9656	-165.165	27.8435	-42.1575	-167.701	23.794	-63.5519	-169.736	16.23	-88.1918	-181.771	47.2461	-48.0809	-181.011	38.9352	-72.4515	-185.539	36.6259	-99.7028	-212.358	44.8563	-41.6117	-224.643	21.0604	-36.1069	-223.462	18.6183	-7.24448	-223.442	50.5085	-31.5972	-230.828	29.515	-23.0498	-218.819	28.4776	-0.0422456	-193.804	66.5265	-0.985701	-194.815	64.4981	28.7519	-173.641	43.8125	17.0688	
158	1.31667	-180.123	15.8814	18.6755	-185.439	1.37796	-10.4816	-194.265	7.81856	-30.0318	-207.512	18.8123	-46.885	-166.119	27.2126	-45.6988	-168.057	19.8976	-66.6762	-171.644	13.0719	-87.7054	-180.042	40.9836	-54.3184	-182.553	35.3683	-70.9941	-188.49	30.4267	-96.2723	-213.019	39.1666	-43.8418	-224.263	17.7394	-33.4396	-224.253	17.0193	-6.67789	-224.422	48.0518	-31.8861	-233.041	30.4531	-19.9145	-218.932	31.0925	4.36729	-191.934	64.8307	-0.077132	-192.24	67.3785	26.903	-170.74	46.4717	13.614	
159	1.325	-178.073	16.1524	21.3908	-182.934	1.23805	-10.3834	-192.125	7.26924	-33.6648	-207.295	18.0816	-47.9446	-165.163	21.7082	-43.0587	-168.827	13.2359	-69.1892	-175.092	7.5011	-85.7997	-182.698	39.2737	-52.5258	-187.447	29.6017	-74.8141	-191.311	19.755	-97.648	-212.612	37.7882	-41.5233	-223.078	13.8555	-30.7512	-219.406	16.0733	-3.46338	-221.748	44.5489	-31.9961	-228.15	26.3547	-18.4874	-217.106	25.7937	3.46871	-190.439	66.6636	-3.58163	-189.662	69.4473	21.9481	-171.373	49.6417	9.68364	
160	1.33333	-177.076	19.5177	22.59	-181.11	1.14295	-5.63834	-191.798	1.99104	-30.5205	-208.967	14.4151	-48.0632	-168.931	20.9756	-47.0862	-171.858	9.40452	-65.2156	-178.241	-2.5013	-86.7786	-184.134	30.5913	-55.1545	-189.91	19.5027	-73.1906	-196.96	8.94455	-97.7018	-210.78	33.2174	-40.0235	-227.46	11.0024	-24.2239	-220.749	14.2796	-0.838943	-224.391	42.5834	-30.3043	-230.053	22.6305	-11.6756	-212.761	27.2748	7.60386	-188.116	62.1937	-9.80019	-187.858	66.3107	20.1715	-168.165	49.0858	10.335	
161	1.34167	-174.567	20.7904	22.4518	-179.68	-3.32409	-3.57163	-192.14	-0.750019	-27.1107	-208.963	6.11762	-44.3528	-168.429	14.7417	-43.8089	-173.093	2.70419	-61.3345	-184.083	-10.7616	-82.3518	-187.92	27.5152	-51.1112	-195.068	13.4446	-70.6967	-201.678	-0.447509	-91.137	-215.083	26.2929	-40.0667	-223.026	5.6346	-24.119	-218.842	12.5962	4.17892	-224.865	38.1644	-29.1077	-228.371	18.3497	-13.8434	-217.91	24.902	9.34612	-192.408	60.6119	-11.5107	-192.602	69.2555	15.0576	-172.169	51.3849	5.66064	
